<!-- icon666.com - MILLIONS vector ICONS FREE --><svg version="1.1" id="Layer_1" xmlns="http://www.w3.org/2000/svg" xmlns:xlink="http://www.w3.org/1999/xlink" x="0px" y="0px" viewBox="0 0 480 480" style="enable-background:new 0 0 480 480;" xml:space="preserve"><circle style="fill: rgb(245, 245, 245);" cx="240" cy="240" r="240" fill="#EDECEB"></circle><path style="fill: rgb(255, 255, 255);" d="M356.8,380H123.2c-22,0-40-18-40-40V140c0-22,18-40,40-40h233.6c22,0,40,18,40,40v200 C396.8,362,378.8,380,356.8,380z" fill="#F7F7FB"></path><g><circle style="" cx="163.2" cy="182" r="20" fill="#F6C138"></circle><circle style="" cx="319.2" cy="302" r="20" fill="#F6C138"></circle></g><g><circle style="" cx="319.2" cy="182" r="20" fill="#F1684E"></circle><circle style="" cx="239.2" cy="234" r="20" fill="#F1684E"></circle></g><g><path style="" d="M43.2,308c-6.8,0-12,5.2-12,12s5.2,12,12,12h28v8c0,28.8,23.2,52,52,52h233.6c28.8,0,52-23.2,52-52 v-8h34.4c6.8,0,12-5.2,12-12s-5.2-12-12-12h-34.4v-16h34.4c6.8,0,12-5.2,12-12s-5.2-12-12-12h-34.4v-16h34.4c6.8,0,12-5.2,12-12 s-5.2-12-12-12h-34.4v-16h34.4c6.8,0,12-5.2,12-12s-5.2-12-12-12h-34.4v-16h34.4c6.8,0,12-5.2,12-12s-5.2-12-12-12h-34.4v-8 c0-28.8-23.2-52-52-52H123.2c-28.8,0-52,23.2-52,52v8h-28c-6.8,0-12,5.2-12,12s5.2,12,12,12h28v16h-28c-6.8,0-12,5.2-12,12 s5.2,12,12,12h28v16h-28c-6.8,0-12,5.2-12,12c0,6.8,5.2,12,12,12h28v16h-28c-6.8,0-12,5.2-12,12s5.2,12,12,12h28v16H43.2z M356.8,368H123.2c-15.6,0-28-12.4-28-28V140c0-15.6,12.4-28,28-28h233.6c15.6,0,28,12.4,28,28v200C384.8,355.6,372,368,356.8,368z " fill="#454B54"></path><path style="" d="M319.2,270c-12.4,0-23.6,7.2-28.8,18H175.2v-76.4c12-4.8,20-16.4,20-29.6c0-17.6-14.4-32-32-32 s-32,14.4-32,32c0,13.2,8,24.8,20,29.6V300c0,6.8,5.2,12,12,12h125.6c4.4,12.8,16.4,22,30.4,22c17.6,0,32-14.4,32-32 S336.8,270,319.2,270z M319.2,294c4.4,0,8,3.6,8,8s-3.6,8-8,8s-8-3.6-8-8S314.8,294,319.2,294z M163.2,174c4.4,0,8,3.6,8,8 s-3.6,8-8,8s-8-3.6-8-8S158.8,174,163.2,174z" fill="#454B54"></path><path style="" d="M319.2,150c-17.6,0-32,14.4-32,32c0,2,0.4,4,0.8,6l-30.4,19.6c-5.2-3.6-11.6-5.6-18.4-5.6 c-17.6,0-32,14.4-32,32s14.4,32,32,32s32-14.4,32-32c0-2-0.4-4-0.8-6l30.4-19.6c5.2,3.6,11.6,5.6,18.4,5.6c17.6,0,32-14.4,32-32 S336.8,150,319.2,150z M319.2,174c4.4,0,8,3.6,8,8s-3.6,8-8,8s-8-3.6-8-8S314.8,174,319.2,174z M239.2,226c4.4,0,8,3.6,8,8 s-3.6,8-8,8s-8-3.6-8-8S234.8,226,239.2,226z" fill="#454B54"></path></g></svg>